<?xml version="1.0" standalone="no"?>
<!DOCTYPE svg PUBLIC "-//W3C//DTD SVG 20010904//EN"
 "http://www.w3.org/TR/2001/REC-SVG-20010904/DTD/svg10.dtd">
<svg version="1.0" xmlns="http://www.w3.org/2000/svg"
 width="656.000000pt" height="656.000000pt" viewBox="0 0 656.000000 656.000000"
 preserveAspectRatio="xMidYMid meet">
<metadata>
Created by potrace 1.14, written by Peter Selinger 2001-2017
</metadata>
<g transform="translate(0.000000,656.000000) scale(0.100000,-0.100000)"
fill="#000000" stroke="none">
<path d="M2485 5003 c-58 -5 -140 -27 -190 -50 -27 -12 -58 -23 -68 -23 -10 0
-48 -16 -84 -35 -36 -19 -72 -35 -80 -35 -8 0 -21 -7 -29 -15 -8 -8 -39 -22
-69 -31 -33 -11 -57 -25 -60 -35 -14 -42 -164 -116 -211 -105 -13 4 -26 1 -29
-4 -4 -6 -10 -8 -15 -5 -5 3 -12 0 -17 -8 -4 -7 -43 -30 -85 -51 -43 -22 -80
-47 -84 -58 -3 -10 -8 -16 -12 -14 -8 5 -26 -14 -31 -34 -19 -75 -21 -103 -11
-152 6 -29 14 -71 19 -93 4 -22 11 -47 17 -57 12 -21 80 -75 106 -84 15 -4 18
-11 13 -31 -6 -25 -5 -25 38 -19 38 6 48 3 78 -21 48 -38 69 -60 69 -71 0 -5
9 -12 20 -15 11 -3 20 -9 19 -14 -3 -20 2 -33 14 -33 6 0 36 -25 66 -55 41
-43 52 -61 49 -80 -3 -15 -1 -22 7 -19 16 6 56 -42 84 -99 12 -25 33 -57 47
-72 13 -14 21 -31 18 -37 -4 -6 -3 -8 3 -5 20 13 154 -95 270 -218 150 -158
232 -232 300 -269 39 -21 90 -56 113 -77 23 -22 46 -39 51 -39 5 0 8 -10 6
-22 -2 -19 3 -23 25 -23 15 0 27 -4 27 -8 0 -5 17 -21 38 -36 21 -16 60 -49
88 -75 27 -25 53 -46 58 -46 4 0 13 -5 20 -10 47 -39 92 -70 102 -70 7 0 18
-14 24 -31 6 -17 15 -28 20 -24 10 5 50 -12 61 -27 3 -4 21 -10 40 -13 41 -7
63 -23 56 -42 -3 -8 -2 -11 3 -8 6 3 14 -2 19 -10 5 -9 15 -17 24 -19 16 -2
58 -32 107 -74 14 -13 20 -21 14 -17 -8 4 -11 1 -7 -9 3 -8 20 -18 37 -22 18
-4 35 -9 40 -10 4 -1 12 -2 17 -3 6 0 10 -7 10 -15 0 -9 7 -12 20 -9 16 4 19
2 13 -13 -5 -13 -3 -16 10 -11 11 4 28 -4 49 -26 18 -17 35 -32 38 -32 3 0 29
-22 58 -50 29 -27 67 -59 86 -70 18 -11 46 -29 62 -39 16 -11 45 -30 65 -43
20 -13 45 -31 55 -41 11 -9 29 -22 40 -29 10 -6 18 -15 17 -21 -3 -14 48 -12
77 3 14 7 36 10 50 7 32 -7 76 -6 120 1 45 8 70 0 70 -23 0 -13 5 -17 20 -13
11 3 20 14 20 24 0 11 5 19 10 19 6 0 10 6 10 13 1 21 73 62 133 76 31 7 57
16 57 20 0 5 19 21 43 37 23 16 44 32 45 37 2 4 8 7 12 7 10 0 65 51 65 60 0
3 10 16 23 30 12 13 22 29 22 35 0 11 10 24 50 72 5 7 10 16 10 21 0 5 18 44
40 85 25 46 43 96 47 127 3 27 10 50 14 50 5 0 9 11 9 25 0 14 8 29 20 35 11
6 18 15 15 20 -3 5 0 12 8 17 11 7 40 61 38 73 0 3 6 15 14 26 8 12 16 33 17
47 2 14 9 31 16 39 6 8 15 29 18 47 4 17 11 34 15 37 5 3 7 9 4 14 -2 4 14 28
38 52 82 86 138 165 136 195 -1 3 3 9 8 12 16 12 61 97 68 131 2 8 4 17 5 20
1 3 2 8 1 13 0 4 4 7 10 7 5 0 7 5 4 10 -3 6 -2 10 3 10 5 0 9 6 10 13 6 71
16 130 30 172 18 56 19 59 27 100 3 17 12 39 20 51 16 25 27 106 25 201 0 39
3 74 7 76 5 3 10 34 11 69 3 55 0 67 -20 89 -26 28 -112 89 -126 89 -5 0 -22
20 -38 45 -15 25 -31 45 -34 45 -3 0 -15 8 -26 18 -29 26 -84 50 -139 59 -16
3 -42 11 -56 19 -15 7 -29 10 -33 7 -3 -4 -6 -1 -6 6 0 7 -4 9 -10 6 -5 -3
-10 -1 -10 6 0 7 -3 10 -6 7 -9 -9 -144 39 -184 65 -19 13 -62 31 -95 41 -33
9 -75 24 -93 32 -18 8 -46 14 -62 14 -16 0 -41 5 -57 11 -22 8 -40 7 -85 -8
-32 -10 -58 -21 -58 -25 0 -5 -6 -8 -13 -8 -18 0 -71 -42 -76 -60 -2 -8 -4
-19 -5 -25 -2 -5 -6 -32 -11 -58 -6 -38 -13 -50 -32 -58 -37 -14 -61 -11 -112
12 -76 36 -84 39 -141 54 -30 9 -93 18 -140 21 -47 3 -104 12 -127 20 -23 7
-53 15 -67 18 -14 3 -30 8 -36 11 -6 4 -51 10 -100 15 -80 8 -170 34 -170 50
0 3 -8 6 -17 7 -24 2 -131 50 -164 74 -15 10 -36 19 -47 19 -11 0 -27 6 -34
13 -20 18 -68 43 -111 57 -21 7 -53 24 -70 40 -32 27 -92 45 -177 53 -45 4
-80 15 -90 27 -3 3 -45 16 -95 28 -90 22 -154 30 -210 25z"/>
<path d="M1320 3855 c-10 -12 -10 -15 3 -15 19 0 31 16 18 24 -5 3 -14 -1 -21
-9z"/>
<path d="M1285 3830 c-3 -5 -1 -10 4 -10 6 0 11 5 11 10 0 6 -2 10 -4 10 -3 0
-8 -4 -11 -10z"/>
<path d="M1950 3720 c0 -5 5 -10 11 -10 5 0 7 5 4 10 -3 6 -8 10 -11 10 -2 0
-4 -4 -4 -10z"/>
<path d="M2595 3040 c-3 -5 -1 -10 4 -10 6 0 11 5 11 10 0 6 -2 10 -4 10 -3 0
-8 -4 -11 -10z"/>
</g>
</svg>
